<svg width="10" height="16" viewBox="0 0 10 16" fill="none" xmlns="http://www.w3.org/2000/svg">
<path d="M9.68904 0.682983V10.601H7.61904V8.53098C7.36704 9.23898 6.94704 9.78498 6.35904 10.169C5.78304 10.553 5.10504 10.745 4.32504 10.745C3.92904 10.745 3.55704 10.673 3.20904 10.529C2.86104 10.385 2.57904 10.151 2.36304 9.82698V15.317H0.311035V0.682983H2.36304V5.84898C2.36304 6.85698 2.60304 7.62498 3.08304 8.15298C3.57504 8.68098 4.22904 8.94498 5.04504 8.94498C5.82504 8.94498 6.44904 8.69298 6.91704 8.18898C7.38504 7.67298 7.61904 6.92298 7.61904 5.93898V0.682983H9.68904Z" fill="#29A8FF"/>
</svg>
